<mxfile host="65bd71144e">
    <diagram id="EhUm67n5qJ-X8OCv_8h2" name="MD-01">
        <mxGraphModel dx="528" dy="518" grid="1" gridSize="10" guides="1" tooltips="1" connect="1" arrows="1" fold="1" page="1" pageScale="1" pageWidth="827" pageHeight="1169" math="0" shadow="0">
            <root>
                <mxCell id="0"/>
                <mxCell id="1" parent="0"/>
                <mxCell id="12" value="Conoce" style="edgeStyle=none;html=1;entryX=0;entryY=0.5;entryDx=0;entryDy=0;endArrow=ERoneToMany;endFill=0;startArrow=ERone;startFill=0;" edge="1" parent="1" target="6">
                    <mxGeometry relative="1" as="geometry">
                        <mxPoint x="160" y="160" as="sourcePoint"/>
                        <mxPoint x="282" y="160.0000000000001" as="targetPoint"/>
                    </mxGeometry>
                </mxCell>
                <mxCell id="3" value="Administrador" style="swimlane;" vertex="1" parent="1">
                    <mxGeometry x="39" y="120" width="120" height="80" as="geometry"/>
                </mxCell>
                <mxCell id="51" value="Registra" style="edgeStyle=none;sketch=0;html=1;exitX=1;exitY=0.5;exitDx=0;exitDy=0;entryX=0;entryY=0.5;entryDx=0;entryDy=0;startArrow=ERone;startFill=0;endArrow=ERzeroToMany;endFill=0;elbow=vertical;" edge="1" parent="1" source="5" target="10">
                    <mxGeometry x="-0.0826" y="1" relative="1" as="geometry">
                        <mxPoint as="offset"/>
                    </mxGeometry>
                </mxCell>
                <mxCell id="5" value="Alumno" style="swimlane;" vertex="1" parent="1">
                    <mxGeometry x="39" y="298" width="120" height="80" as="geometry"/>
                </mxCell>
                <mxCell id="6" value="Incidencia" style="swimlane;startSize=23;" vertex="1" parent="1">
                    <mxGeometry x="292" y="120" width="120" height="80" as="geometry"/>
                </mxCell>
                <mxCell id="25" value="Atiende" style="edgeStyle=none;html=1;exitX=0;exitY=0.5;exitDx=0;exitDy=0;endArrow=ERoneToMany;endFill=0;startArrow=ERone;startFill=0;entryX=1;entryY=0.5;entryDx=0;entryDy=0;" edge="1" parent="1" source="4" target="10">
                    <mxGeometry relative="1" as="geometry">
                        <mxPoint x="480" y="337" as="targetPoint"/>
                    </mxGeometry>
                </mxCell>
                <mxCell id="4" value="Empleado" style="swimlane;" vertex="1" parent="1">
                    <mxGeometry x="679" y="297" width="120" height="80" as="geometry"/>
                </mxCell>
                <mxCell id="18" value="" style="html=1;exitX=1;exitY=0.5;exitDx=0;exitDy=0;entryX=0;entryY=0.5;entryDx=0;entryDy=0;endArrow=ERoneToMany;endFill=0;startArrow=none;startFill=0;" edge="1" parent="1" source="48" target="42">
                    <mxGeometry relative="1" as="geometry"/>
                </mxCell>
                <mxCell id="7" value="Servicio" style="swimlane;startSize=23;" vertex="1" parent="1">
                    <mxGeometry x="448" y="480" width="120" height="80" as="geometry"/>
                </mxCell>
                <mxCell id="24" value="Posse" style="edgeStyle=none;html=1;exitX=0.5;exitY=0;exitDx=0;exitDy=0;entryX=0.5;entryY=1;entryDx=0;entryDy=0;endArrow=ERmany;endFill=0;startArrow=ERone;startFill=0;" edge="1" parent="1" source="8" target="10">
                    <mxGeometry relative="1" as="geometry"/>
                </mxCell>
                <mxCell id="8" value="CategorÃ­a" style="swimlane;startSize=23;" vertex="1" parent="1">
                    <mxGeometry x="292" y="480" width="120" height="80" as="geometry"/>
                </mxCell>
                <mxCell id="9" value="Prioridad" style="swimlane;startSize=23;" vertex="1" parent="1">
                    <mxGeometry x="135" y="480" width="120" height="80" as="geometry"/>
                </mxCell>
                <mxCell id="17" value="Tiene" style="edgeStyle=none;html=1;exitX=0;exitY=1;exitDx=0;exitDy=0;entryX=0.5;entryY=0;entryDx=0;entryDy=0;endArrow=ERone;endFill=0;startArrow=ERmany;startFill=0;" edge="1" parent="1" source="10" target="9">
                    <mxGeometry relative="1" as="geometry"/>
                </mxCell>
                <mxCell id="20" style="edgeStyle=none;html=1;exitX=1;exitY=1;exitDx=0;exitDy=0;entryX=0.5;entryY=0;entryDx=0;entryDy=0;endArrow=ERone;endFill=0;startArrow=ERmany;startFill=0;" edge="1" parent="1" source="10" target="7">
                    <mxGeometry relative="1" as="geometry"/>
                </mxCell>
                <mxCell id="21" value="Conoce" style="edgeLabel;html=1;align=center;verticalAlign=middle;resizable=0;points=[];" vertex="1" connectable="0" parent="20">
                    <mxGeometry x="-0.2037" y="-3" relative="1" as="geometry">
                        <mxPoint x="10" y="7" as="offset"/>
                    </mxGeometry>
                </mxCell>
                <mxCell id="26" style="edgeStyle=none;html=1;exitX=0.5;exitY=0;exitDx=0;exitDy=0;entryX=0.5;entryY=1;entryDx=0;entryDy=0;endArrow=ERone;endFill=0;startArrow=ERone;startFill=0;" edge="1" parent="1" source="10" target="6">
                    <mxGeometry relative="1" as="geometry"/>
                </mxCell>
                <mxCell id="27" value="Introduce" style="edgeLabel;html=1;align=center;verticalAlign=middle;resizable=0;points=[];" vertex="1" connectable="0" parent="26">
                    <mxGeometry x="-0.2291" y="-3" relative="1" as="geometry">
                        <mxPoint x="-4" y="-15" as="offset"/>
                    </mxGeometry>
                </mxCell>
                <mxCell id="10" value="Solicitud" style="swimlane;startSize=23;" vertex="1" parent="1">
                    <mxGeometry x="292" y="297" width="120" height="80" as="geometry"/>
                </mxCell>
                <mxCell id="50" value="Pertenece-a" style="edgeStyle=none;sketch=0;html=1;exitX=0.5;exitY=0;exitDx=0;exitDy=0;entryX=0.5;entryY=1;entryDx=0;entryDy=0;startArrow=ERone;startFill=0;endArrow=ERoneToMany;endFill=0;elbow=vertical;" edge="1" parent="1" source="42" target="4">
                    <mxGeometry relative="1" as="geometry"/>
                </mxCell>
                <mxCell id="42" value="Nivel de Actuacion" style="swimlane;startSize=23;" vertex="1" parent="1">
                    <mxGeometry x="679" y="481" width="120" height="80" as="geometry"/>
                </mxCell>
                <mxCell id="48" value="Presenta" style="text;html=1;align=center;verticalAlign=middle;resizable=0;points=[];autosize=1;strokeColor=none;fillColor=none;" vertex="1" parent="1">
                    <mxGeometry x="596" y="510" width="60" height="20" as="geometry"/>
                </mxCell>
                <mxCell id="49" value="" style="html=1;exitX=1;exitY=0.5;exitDx=0;exitDy=0;entryX=0;entryY=0.5;entryDx=0;entryDy=0;endArrow=none;endFill=0;startArrow=ERoneToMany;startFill=0;" edge="1" parent="1" source="7" target="48">
                    <mxGeometry relative="1" as="geometry">
                        <mxPoint x="568" y="520" as="sourcePoint"/>
                        <mxPoint x="686" y="521" as="targetPoint"/>
                    </mxGeometry>
                </mxCell>
            </root>
        </mxGraphModel>
    </diagram>
</mxfile>